<svg width="40" height="40" viewBox="0 0 40 40" fill="none" xmlns="http://www.w3.org/2000/svg">
<g style="mix-blend-mode:difference" clip-path="url(#clip0_1_13)">
<path d="M20 26.875C22.3487 26.875 24.6446 26.1785 26.5974 24.8737C28.5502 23.5689 30.0723 21.7142 30.9711 19.5444C31.8699 17.3745 32.105 14.9868 31.6468 12.6833C31.1886 10.3798 30.0576 8.26386 28.3969 6.60311C26.7361 4.94236 24.6202 3.81138 22.3167 3.35318C20.0132 2.89498 17.6255 3.13015 15.4556 4.02894C13.2858 4.92773 11.4311 6.44977 10.1263 8.40261C8.82146 10.3554 8.125 12.6514 8.125 15C8.12913 18.1482 9.38157 21.1662 11.6077 23.3923C13.8338 25.6184 16.8518 26.8709 20 26.875V26.875ZM20 6.87501C21.607 6.87501 23.1779 7.35153 24.514 8.24431C25.8502 9.1371 26.8916 10.4061 27.5065 11.8907C28.1215 13.3754 28.2824 15.009 27.9689 16.5851C27.6554 18.1612 26.8815 19.6089 25.7452 20.7452C24.6089 21.8815 23.1612 22.6554 21.5851 22.9689C20.009 23.2824 18.3753 23.1215 16.8907 22.5065C15.406 21.8916 14.1371 20.8502 13.2443 19.514C12.3515 18.1779 11.875 16.607 11.875 15C11.875 12.8451 12.731 10.7785 14.2548 9.25476C15.7785 7.73103 17.8451 6.87501 20 6.87501V6.87501Z" fill="#1BC3CE"/>
<g filter="url(#filter0_d_1_13)">
<path d="M32.8125 27.8125C33.0012 27.6425 33.1534 27.4359 33.2599 27.2053C33.3663 26.9747 33.4248 26.7249 33.4318 26.471C33.4388 26.2171 33.3941 25.9645 33.3005 25.7284C33.2069 25.4923 33.0663 25.2776 32.8872 25.0975C32.7082 24.9174 32.4944 24.7755 32.2588 24.6805C32.0233 24.5855 31.7709 24.5394 31.517 24.5449C31.263 24.5504 31.0129 24.6074 30.7817 24.7125C30.5504 24.8176 30.343 24.9685 30.1719 25.1562C28.8394 26.4969 27.2544 27.5601 25.5084 28.2842C23.7624 29.0084 21.8902 29.3791 20 29.375C18.1119 29.3805 16.2416 29.0104 14.498 28.2861C12.7544 27.5618 11.1722 26.4979 9.84375 25.1562C7.14828 22.4605 5.63401 18.8044 5.63401 14.9922C5.63401 11.18 7.14828 7.5239 9.84375 4.82811C10.1659 4.4705 10.3382 4.00268 10.325 3.52152C10.3117 3.04037 10.114 2.58274 9.7726 2.24339C9.43124 1.90404 8.97245 1.70897 8.49123 1.69856C8.01 1.68815 7.54321 1.86321 7.1875 2.18749C3.79455 5.5883 1.88908 10.1961 1.88908 15C1.88908 19.8039 3.79455 24.4117 7.1875 27.8125C10.1175 30.7683 13.9841 32.6132 18.125 33.0312V35H15C14.5027 35 14.0258 35.1975 13.6742 35.5492C13.3225 35.9008 13.125 36.3777 13.125 36.875C13.125 37.3723 13.3225 37.8492 13.6742 38.2008C14.0258 38.5524 14.5027 38.75 15 38.75H25C25.4973 38.75 25.9742 38.5524 26.3258 38.2008C26.6775 37.8492 26.875 37.3723 26.875 36.875C26.875 36.3777 26.6775 35.9008 26.3258 35.5492C25.9742 35.1975 25.4973 35 25 35H21.875V33.0312C26.0166 32.6158 29.884 30.7704 32.8125 27.8125Z" fill="url(#paint0_linear_1_13)" shape-rendering="crispEdges"/>
</g>
</g>
<defs>
<filter id="filter0_d_1_13" x="-1.11092" y="-1.30188" width="37.5434" height="43.0519" filterUnits="userSpaceOnUse" color-interpolation-filters="sRGB">
<feFlood flood-opacity="0" result="BackgroundImageFix"/>
<feColorMatrix in="SourceAlpha" type="matrix" values="0 0 0 0 0 0 0 0 0 0 0 0 0 0 0 0 0 0 127 0" result="hardAlpha"/>
<feOffset/>
<feGaussianBlur stdDeviation="1.5"/>
<feComposite in2="hardAlpha" operator="out"/>
<feColorMatrix type="matrix" values="0 0 0 0 0 0 0 0 0 0.475 0 0 0 0 0.304 0 0 0 0.2 0"/>
<feBlend mode="normal" in2="BackgroundImageFix" result="effect1_dropShadow_1_13"/>
<feBlend mode="normal" in="SourceGraphic" in2="effect1_dropShadow_1_13" result="shape"/>
</filter>
<linearGradient id="paint0_linear_1_13" x1="5.5" y1="35" x2="42" y2="6" gradientUnits="userSpaceOnUse">
<stop stop-color="#3300FF"/>
<stop offset="0.500705" stop-color="#00D1FF"/>
<stop offset="1" stop-color="#0F8DD3" stop-opacity="0"/>
<stop offset="1" stop-color="#0085FF"/>
</linearGradient>
<clipPath id="clip0_1_13">
<rect width="40" height="40" fill="white"/>
</clipPath>
</defs>
</svg>
